<svg xmlns="http://www.w3.org/2000/svg" width="150" height="164" viewBox="0 0 150 164" aria-label="Claude the padawan — a starburst in robes with a braid">
  <g id="robe">
    <path d="M30,152 C36,112 52,94 75,90 C98,94 114,112 120,152 Z" fill="#E7DCC3" stroke="#D5C6A4" stroke-width="1.5"/>
    <path d="M62,92 C68,100 82,100 88,92 L84,152 L66,152 Z" fill="#F3EBD9"/>
  </g>
  <g id="belt">
    <rect x="50" y="126" width="50" height="9" rx="3" fill="#6B4A2F"/>
    <rect x="70" y="127" width="10" height="7" rx="1.5" fill="#C9A227"/>
  </g>
  <g id="braid">
    <path d="M96,96 C104,108 103,124 99,138" fill="none" stroke="#7A5A3A" stroke-width="3.2" stroke-linecap="round"/>
    <path d="M99,106 l5,-2 M101,116 l5,-2 M101,126 l5,-1" stroke="#7A5A3A" stroke-width="1.6" stroke-linecap="round"/>
    <circle cx="99" cy="140" r="2.6" fill="#8A6A45"/>
  </g>
  <g transform="translate(75 78)">
    <path d="M-3.4,-11 L-1.1,-44 L1.1,-44 L3.4,-11 Z" transform="rotate(0 0 0)" fill="#D97757" stroke="#D97757" stroke-width="2" stroke-linejoin="round"/>
    <path d="M-3.4,-11 L-1.1,-36 L1.1,-36 L3.4,-11 Z" transform="rotate(30 0 0)" fill="#D97757" stroke="#D97757" stroke-width="2" stroke-linejoin="round"/>
    <path d="M-3.4,-11 L-1.1,-42 L1.1,-42 L3.4,-11 Z" transform="rotate(60 0 0)" fill="#D97757" stroke="#D97757" stroke-width="2" stroke-linejoin="round"/>
    <path d="M-3.4,-11 L-1.1,-34 L1.1,-34 L3.4,-11 Z" transform="rotate(90 0 0)" fill="#D97757" stroke="#D97757" stroke-width="2" stroke-linejoin="round"/>
    <path d="M-3.4,-11 L-1.1,-44 L1.1,-44 L3.4,-11 Z" transform="rotate(120 0 0)" fill="#D97757" stroke="#D97757" stroke-width="2" stroke-linejoin="round"/>
    <path d="M-3.4,-11 L-1.1,-36 L1.1,-36 L3.4,-11 Z" transform="rotate(150 0 0)" fill="#D97757" stroke="#D97757" stroke-width="2" stroke-linejoin="round"/>
    <path d="M-3.4,-11 L-1.1,-42 L1.1,-42 L3.4,-11 Z" transform="rotate(180 0 0)" fill="#D97757" stroke="#D97757" stroke-width="2" stroke-linejoin="round"/>
    <path d="M-3.4,-11 L-1.1,-34 L1.1,-34 L3.4,-11 Z" transform="rotate(210 0 0)" fill="#D97757" stroke="#D97757" stroke-width="2" stroke-linejoin="round"/>
    <path d="M-3.4,-11 L-1.1,-44 L1.1,-44 L3.4,-11 Z" transform="rotate(240 0 0)" fill="#D97757" stroke="#D97757" stroke-width="2" stroke-linejoin="round"/>
    <path d="M-3.4,-11 L-1.1,-36 L1.1,-36 L3.4,-11 Z" transform="rotate(270 0 0)" fill="#D97757" stroke="#D97757" stroke-width="2" stroke-linejoin="round"/>
    <path d="M-3.4,-11 L-1.1,-42 L1.1,-42 L3.4,-11 Z" transform="rotate(300 0 0)" fill="#D97757" stroke="#D97757" stroke-width="2" stroke-linejoin="round"/>
    <path d="M-3.4,-11 L-1.1,-34 L1.1,-34 L3.4,-11 Z" transform="rotate(330 0 0)" fill="#D97757" stroke="#D97757" stroke-width="2" stroke-linejoin="round"/>
    <circle r="12" fill="#D97757"/>
  </g>
  <circle cx="68" cy="74" r="2.7" fill="#141413"/><circle cx="82" cy="74" r="2.7" fill="#141413"/>
  <circle cx="69" cy="73" r="0.9" fill="#FFF"/><circle cx="83" cy="73" r="0.9" fill="#FFF"/>
  <path d="M69,82 Q75,86 81,82" fill="none" stroke="#8C4A2F" stroke-width="1.8" stroke-linecap="round"/>
</svg>
